<svg width="457" height="71" viewBox="0 0 457 71" fill="none" xmlns="http://www.w3.org/2000/svg">
<line x1="2" y1="-2" x2="395.895" y2="-2" transform="matrix(1 0 6.30824e-05 1 42.0527 24)" stroke="#797979" stroke-width="4" stroke-linecap="round"/>
<line x1="41.875" y1="22" x2="117.209" y2="22" stroke="#5258B5" stroke-width="4" stroke-linecap="round"/>
<line x1="121" y1="22" x2="319" y2="22" stroke="#5258B5" stroke-width="4" stroke-linecap="round"/>
<rect x="17" width="48" height="48" rx="24" fill="#5258B5"/>
<path d="M41 23C43.2091 23 45 21.2091 45 19C45 16.7909 43.2091 15 41 15C38.7909 15 37 16.7909 37 19C37 21.2091 38.7909 23 41 23Z" stroke="white" stroke-width="2" stroke-linecap="round" stroke-linejoin="round"/>
<path d="M49 33V31C49 29.9391 48.5786 28.9217 47.8284 28.1716C47.0783 27.4214 46.0609 27 45 27H37C35.9391 27 34.9217 27.4214 34.1716 28.1716C33.4214 28.9217 33 29.9391 33 31V33" stroke="white" stroke-width="2" stroke-linecap="round" stroke-linejoin="round"/>
<path d="M0.1805 68V59.6H3.3245C4.0365 59.6 4.6485 59.716 5.1605 59.948C5.6725 60.172 6.0645 60.5 6.3365 60.932C6.6165 61.356 6.7565 61.872 6.7565 62.48C6.7565 63.072 6.6165 63.584 6.3365 64.016C6.0645 64.44 5.6725 64.768 5.1605 65C4.6485 65.232 4.0365 65.348 3.3245 65.348H0.6725L1.0685 64.928V68H0.1805ZM1.0685 65L0.6725 64.568H3.3005C4.1405 64.568 4.7765 64.388 5.2085 64.028C5.6485 63.66 5.8685 63.144 5.8685 62.48C5.8685 61.808 5.6485 61.288 5.2085 60.92C4.7765 60.552 4.1405 60.368 3.3005 60.368H0.6725L1.0685 59.948V65ZM11.1374 68.06C10.4814 68.06 9.90544 67.924 9.40944 67.652C8.91344 67.372 8.52544 66.992 8.24544 66.512C7.96544 66.024 7.82544 65.468 7.82544 64.844C7.82544 64.22 7.95744 63.668 8.22144 63.188C8.49344 62.708 8.86144 62.332 9.32544 62.06C9.79744 61.78 10.3254 61.64 10.9094 61.64C11.5014 61.64 12.0254 61.776 12.4814 62.048C12.9454 62.312 13.3094 62.688 13.5734 63.176C13.8374 63.656 13.9694 64.212 13.9694 64.844C13.9694 64.884 13.9654 64.928 13.9574 64.976C13.9574 65.016 13.9574 65.06 13.9574 65.108H8.47344V64.472H13.5014L13.1654 64.724C13.1654 64.268 13.0654 63.864 12.8654 63.512C12.6734 63.152 12.4094 62.872 12.0734 62.672C11.7374 62.472 11.3494 62.372 10.9094 62.372C10.4774 62.372 10.0894 62.472 9.74544 62.672C9.40144 62.872 9.13344 63.152 8.94144 63.512C8.74944 63.872 8.65344 64.284 8.65344 64.748V64.88C8.65344 65.36 8.75744 65.784 8.96544 66.152C9.18144 66.512 9.47744 66.796 9.85344 67.004C10.2374 67.204 10.6734 67.304 11.1614 67.304C11.5454 67.304 11.9014 67.236 12.2294 67.1C12.5654 66.964 12.8534 66.756 13.0934 66.476L13.5734 67.028C13.2934 67.364 12.9414 67.62 12.5174 67.796C12.1014 67.972 11.6414 68.06 11.1374 68.06ZM15.7036 68V61.7H16.5196V63.416L16.4356 63.116C16.6116 62.636 16.9076 62.272 17.3236 62.024C17.7396 61.768 18.2556 61.64 18.8716 61.64V62.468C18.8396 62.468 18.8076 62.468 18.7756 62.468C18.7436 62.46 18.7116 62.456 18.6796 62.456C18.0156 62.456 17.4956 62.66 17.1196 63.068C16.7436 63.468 16.5556 64.04 16.5556 64.784V68H15.7036ZM22.1886 68.06C21.6686 68.06 21.1766 67.988 20.7126 67.844C20.2486 67.692 19.8846 67.504 19.6206 67.28L20.0046 66.608C20.2606 66.8 20.5886 66.968 20.9886 67.112C21.3886 67.248 21.8086 67.316 22.2486 67.316C22.8486 67.316 23.2806 67.224 23.5446 67.04C23.8086 66.848 23.9406 66.596 23.9406 66.284C23.9406 66.052 23.8646 65.872 23.7126 65.744C23.5686 65.608 23.3766 65.508 23.1366 65.444C22.8966 65.372 22.6286 65.312 22.3326 65.264C22.0366 65.216 21.7406 65.16 21.4446 65.096C21.1566 65.032 20.8926 64.94 20.6526 64.82C20.4126 64.692 20.2166 64.52 20.0646 64.304C19.9206 64.088 19.8486 63.8 19.8486 63.44C19.8486 63.096 19.9446 62.788 20.1366 62.516C20.3286 62.244 20.6086 62.032 20.9766 61.88C21.3526 61.72 21.8086 61.64 22.3446 61.64C22.7526 61.64 23.1606 61.696 23.5686 61.808C23.9766 61.912 24.3126 62.052 24.5766 62.228L24.2046 62.912C23.9246 62.72 23.6246 62.584 23.3046 62.504C22.9846 62.416 22.6646 62.372 22.3446 62.372C21.7766 62.372 21.3566 62.472 21.0846 62.672C20.8206 62.864 20.6886 63.112 20.6886 63.416C20.6886 63.656 20.7606 63.844 20.9046 63.98C21.0566 64.116 21.2526 64.224 21.4926 64.304C21.7406 64.376 22.0086 64.436 22.2966 64.484C22.5926 64.532 22.8846 64.592 23.1726 64.664C23.4686 64.728 23.7366 64.82 23.9766 64.94C24.2246 65.052 24.4206 65.216 24.5646 65.432C24.7166 65.64 24.7926 65.916 24.7926 66.26C24.7926 66.628 24.6886 66.948 24.4806 67.22C24.2806 67.484 23.9846 67.692 23.5926 67.844C23.2086 67.988 22.7406 68.06 22.1886 68.06ZM28.924 68.06C28.316 68.06 27.768 67.924 27.28 67.652C26.8 67.372 26.42 66.992 26.14 66.512C25.86 66.024 25.72 65.468 25.72 64.844C25.72 64.212 25.86 63.656 26.14 63.176C26.42 62.696 26.8 62.32 27.28 62.048C27.76 61.776 28.308 61.64 28.924 61.64C29.548 61.64 30.1 61.776 30.58 62.048C31.068 62.32 31.448 62.696 31.72 63.176C32 63.656 32.14 64.212 32.14 64.844C32.14 65.468 32 66.024 31.72 66.512C31.448 66.992 31.068 67.372 30.58 67.652C30.092 67.924 29.54 68.06 28.924 68.06ZM28.924 67.304C29.38 67.304 29.784 67.204 30.136 67.004C30.488 66.796 30.764 66.508 30.964 66.14C31.172 65.764 31.276 65.332 31.276 64.844C31.276 64.348 31.172 63.916 30.964 63.548C30.764 63.18 30.488 62.896 30.136 62.696C29.784 62.488 29.384 62.384 28.936 62.384C28.488 62.384 28.088 62.488 27.736 62.696C27.384 62.896 27.104 63.18 26.896 63.548C26.688 63.916 26.584 64.348 26.584 64.844C26.584 65.332 26.688 65.764 26.896 66.14C27.104 66.508 27.384 66.796 27.736 67.004C28.088 67.204 28.484 67.304 28.924 67.304ZM37.0954 61.64C37.6074 61.64 38.0554 61.74 38.4394 61.94C38.8314 62.132 39.1354 62.428 39.3514 62.828C39.5754 63.228 39.6874 63.732 39.6874 64.34V68H38.8354V64.424C38.8354 63.76 38.6674 63.26 38.3314 62.924C38.0034 62.58 37.5394 62.408 36.9394 62.408C36.4914 62.408 36.0994 62.5 35.7634 62.684C35.4354 62.86 35.1794 63.12 34.9954 63.464C34.8194 63.8 34.7314 64.208 34.7314 64.688V68H33.8794V61.7H34.6954V63.428L34.5634 63.104C34.7634 62.648 35.0834 62.292 35.5234 62.036C35.9634 61.772 36.4874 61.64 37.0954 61.64ZM45.9368 68V66.608L45.9008 66.38V64.052C45.9008 63.516 45.7488 63.104 45.4448 62.816C45.1488 62.528 44.7048 62.384 44.1128 62.384C43.7048 62.384 43.3168 62.452 42.9488 62.588C42.5808 62.724 42.2688 62.904 42.0128 63.128L41.6288 62.492C41.9488 62.22 42.3328 62.012 42.7808 61.868C43.2288 61.716 43.7008 61.64 44.1968 61.64C45.0128 61.64 45.6408 61.844 46.0808 62.252C46.5288 62.652 46.7528 63.264 46.7528 64.088V68H45.9368ZM43.7648 68.06C43.2928 68.06 42.8808 67.984 42.5288 67.832C42.1848 67.672 41.9208 67.456 41.7368 67.184C41.5528 66.904 41.4608 66.584 41.4608 66.224C41.4608 65.896 41.5368 65.6 41.6888 65.336C41.8488 65.064 42.1048 64.848 42.4568 64.688C42.8168 64.52 43.2968 64.436 43.8968 64.436H46.0688V65.072H43.9208C43.3128 65.072 42.8888 65.18 42.6488 65.396C42.4168 65.612 42.3008 65.88 42.3008 66.2C42.3008 66.56 42.4408 66.848 42.7208 67.064C43.0008 67.28 43.3928 67.388 43.8968 67.388C44.3768 67.388 44.7888 67.28 45.1328 67.064C45.4848 66.84 45.7408 66.52 45.9008 66.104L46.0928 66.692C45.9328 67.108 45.6528 67.44 45.2528 67.688C44.8608 67.936 44.3648 68.06 43.7648 68.06ZM49.0669 68V59.096H49.9189V68H49.0669ZM55.6102 68V59.6H59.0302C59.9262 59.6 60.7102 59.78 61.3822 60.14C62.0622 60.492 62.5902 60.984 62.9662 61.616C63.3422 62.248 63.5302 62.976 63.5302 63.8C63.5302 64.624 63.3422 65.352 62.9662 65.984C62.5902 66.616 62.0622 67.112 61.3822 67.472C60.7102 67.824 59.9262 68 59.0302 68H55.6102ZM56.4982 67.232H58.9822C59.7262 67.232 60.3702 67.088 60.9142 66.8C61.4662 66.504 61.8942 66.1 62.1982 65.588C62.5022 65.068 62.6542 64.472 62.6542 63.8C62.6542 63.12 62.5022 62.524 62.1982 62.012C61.8942 61.5 61.4662 61.1 60.9142 60.812C60.3702 60.516 59.7262 60.368 58.9822 60.368H56.4982V67.232ZM69.2923 68V66.608L69.2563 66.38V64.052C69.2563 63.516 69.1043 63.104 68.8003 62.816C68.5043 62.528 68.0603 62.384 67.4683 62.384C67.0603 62.384 66.6723 62.452 66.3043 62.588C65.9363 62.724 65.6243 62.904 65.3683 63.128L64.9843 62.492C65.3043 62.22 65.6883 62.012 66.1363 61.868C66.5843 61.716 67.0563 61.64 67.5523 61.64C68.3683 61.64 68.9963 61.844 69.4363 62.252C69.8843 62.652 70.1083 63.264 70.1083 64.088V68H69.2923ZM67.1203 68.06C66.6483 68.06 66.2363 67.984 65.8843 67.832C65.5403 67.672 65.2763 67.456 65.0923 67.184C64.9083 66.904 64.8163 66.584 64.8163 66.224C64.8163 65.896 64.8923 65.6 65.0443 65.336C65.2043 65.064 65.4603 64.848 65.8123 64.688C66.1723 64.52 66.6523 64.436 67.2523 64.436H69.4243V65.072H67.2763C66.6683 65.072 66.2443 65.18 66.0043 65.396C65.7723 65.612 65.6562 65.88 65.6562 66.2C65.6562 66.56 65.7963 66.848 66.0763 67.064C66.3563 67.28 66.7483 67.388 67.2523 67.388C67.7323 67.388 68.1443 67.28 68.4883 67.064C68.8403 66.84 69.0963 66.52 69.2563 66.104L69.4483 66.692C69.2883 67.108 69.0083 67.44 68.6083 67.688C68.2163 67.936 67.7203 68.06 67.1203 68.06ZM74.4144 68.06C73.8224 68.06 73.3664 67.9 73.0464 67.58C72.7264 67.26 72.5664 66.808 72.5664 66.224V60.308H73.4184V66.176C73.4184 66.544 73.5104 66.828 73.6944 67.028C73.8864 67.228 74.1584 67.328 74.5104 67.328C74.8864 67.328 75.1984 67.22 75.4464 67.004L75.7464 67.616C75.5784 67.768 75.3744 67.88 75.1344 67.952C74.9024 68.024 74.6624 68.06 74.4144 68.06ZM71.4384 62.408V61.7H75.3384V62.408H71.4384ZM81.2454 68V66.608L81.2094 66.38V64.052C81.2094 63.516 81.0574 63.104 80.7534 62.816C80.4574 62.528 80.0134 62.384 79.4214 62.384C79.0134 62.384 78.6254 62.452 78.2574 62.588C77.8894 62.724 77.5774 62.904 77.3214 63.128L76.9374 62.492C77.2574 62.22 77.6414 62.012 78.0894 61.868C78.5374 61.716 79.0094 61.64 79.5054 61.64C80.3214 61.64 80.9494 61.844 81.3894 62.252C81.8374 62.652 82.0614 63.264 82.0614 64.088V68H81.2454ZM79.0734 68.06C78.6014 68.06 78.1894 67.984 77.8374 67.832C77.4934 67.672 77.2294 67.456 77.0454 67.184C76.8614 66.904 76.7694 66.584 76.7694 66.224C76.7694 65.896 76.8454 65.6 76.9974 65.336C77.1574 65.064 77.4134 64.848 77.7654 64.688C78.1254 64.52 78.6054 64.436 79.2054 64.436H81.3774V65.072H79.2294C78.6214 65.072 78.1974 65.18 77.9574 65.396C77.7254 65.612 77.6094 65.88 77.6094 66.2C77.6094 66.56 77.7494 66.848 78.0294 67.064C78.3094 67.28 78.7014 67.388 79.2054 67.388C79.6854 67.388 80.0974 67.28 80.4414 67.064C80.7934 66.84 81.0494 66.52 81.2094 66.104L81.4014 66.692C81.2414 67.108 80.9614 67.44 80.5614 67.688C80.1694 67.936 79.6734 68.06 79.0734 68.06Z" fill="#5258B5"/>
<rect x="145" width="48" height="48" rx="24" fill="#5258B5"/>
<path d="M159.795 21.2527L168.795 14.2527L177.795 21.2527V32.2527C177.795 32.7831 177.584 33.2918 177.209 33.6669C176.834 34.042 176.325 34.2527 175.795 34.2527H161.795C161.264 34.2527 160.756 34.042 160.381 33.6669C160.006 33.2918 159.795 32.7831 159.795 32.2527V21.2527Z" stroke="white" stroke-width="2" stroke-linecap="round" stroke-linejoin="round"/>
<path d="M165.795 34.2527V24.2527H171.795V34.2527" stroke="white" stroke-width="2" stroke-linecap="round" stroke-linejoin="round"/>
<path d="M128.764 68L132.604 59.6H133.48L137.32 68H136.384L132.856 60.116H133.216L129.688 68H128.764ZM130.276 65.756L130.54 65.036H135.424L135.688 65.756H130.276ZM140.979 68.06C140.379 68.06 139.839 67.924 139.359 67.652C138.887 67.38 138.515 67.004 138.243 66.524C137.971 66.036 137.835 65.476 137.835 64.844C137.835 64.204 137.971 63.644 138.243 63.164C138.515 62.684 138.887 62.312 139.359 62.048C139.839 61.776 140.379 61.64 140.979 61.64C141.531 61.64 142.023 61.764 142.455 62.012C142.895 62.26 143.243 62.624 143.499 63.104C143.763 63.576 143.895 64.156 143.895 64.844C143.895 65.524 143.767 66.104 143.511 66.584C143.255 67.064 142.907 67.432 142.467 67.688C142.035 67.936 141.539 68.06 140.979 68.06ZM141.039 67.304C141.487 67.304 141.887 67.204 142.239 67.004C142.599 66.796 142.879 66.508 143.079 66.14C143.287 65.764 143.391 65.332 143.391 64.844C143.391 64.348 143.287 63.916 143.079 63.548C142.879 63.18 142.599 62.896 142.239 62.696C141.887 62.488 141.487 62.384 141.039 62.384C140.599 62.384 140.203 62.488 139.851 62.696C139.499 62.896 139.219 63.18 139.011 63.548C138.803 63.916 138.699 64.348 138.699 64.844C138.699 65.332 138.803 65.764 139.011 66.14C139.219 66.508 139.499 66.796 139.851 67.004C140.203 67.204 140.599 67.304 141.039 67.304ZM143.415 68V66.104L143.499 64.832L143.379 63.56V59.096H144.231V68H143.415ZM149.112 68.06C148.512 68.06 147.972 67.924 147.492 67.652C147.02 67.38 146.648 67.004 146.376 66.524C146.104 66.036 145.968 65.476 145.968 64.844C145.968 64.204 146.104 63.644 146.376 63.164C146.648 62.684 147.02 62.312 147.492 62.048C147.972 61.776 148.512 61.64 149.112 61.64C149.664 61.64 150.156 61.764 150.588 62.012C151.028 62.26 151.376 62.624 151.632 63.104C151.896 63.576 152.028 64.156 152.028 64.844C152.028 65.524 151.9 66.104 151.644 66.584C151.388 67.064 151.04 67.432 150.6 67.688C150.168 67.936 149.672 68.06 149.112 68.06ZM149.172 67.304C149.62 67.304 150.02 67.204 150.372 67.004C150.732 66.796 151.012 66.508 151.212 66.14C151.42 65.764 151.524 65.332 151.524 64.844C151.524 64.348 151.42 63.916 151.212 63.548C151.012 63.18 150.732 62.896 150.372 62.696C150.02 62.488 149.62 62.384 149.172 62.384C148.732 62.384 148.336 62.488 147.984 62.696C147.632 62.896 147.352 63.18 147.144 63.548C146.936 63.916 146.832 64.348 146.832 64.844C146.832 65.332 146.936 65.764 147.144 66.14C147.352 66.508 147.632 66.796 147.984 67.004C148.336 67.204 148.732 67.304 149.172 67.304ZM151.548 68V66.104L151.632 64.832L151.512 63.56V59.096H152.364V68H151.548ZM154.737 68V61.7H155.553V63.416L155.469 63.116C155.645 62.636 155.941 62.272 156.357 62.024C156.773 61.768 157.289 61.64 157.905 61.64V62.468C157.873 62.468 157.841 62.468 157.809 62.468C157.777 62.46 157.745 62.456 157.713 62.456C157.049 62.456 156.529 62.66 156.153 63.068C155.777 63.468 155.589 64.04 155.589 64.784V68H154.737ZM162.077 68.06C161.421 68.06 160.845 67.924 160.349 67.652C159.853 67.372 159.465 66.992 159.185 66.512C158.905 66.024 158.765 65.468 158.765 64.844C158.765 64.22 158.897 63.668 159.161 63.188C159.433 62.708 159.801 62.332 160.265 62.06C160.737 61.78 161.265 61.64 161.849 61.64C162.441 61.64 162.965 61.776 163.421 62.048C163.885 62.312 164.249 62.688 164.513 63.176C164.777 63.656 164.909 64.212 164.909 64.844C164.909 64.884 164.905 64.928 164.897 64.976C164.897 65.016 164.897 65.06 164.897 65.108H159.413V64.472H164.441L164.105 64.724C164.105 64.268 164.005 63.864 163.805 63.512C163.613 63.152 163.349 62.872 163.013 62.672C162.677 62.472 162.289 62.372 161.849 62.372C161.417 62.372 161.029 62.472 160.685 62.672C160.341 62.872 160.073 63.152 159.881 63.512C159.689 63.872 159.593 64.284 159.593 64.748V64.88C159.593 65.36 159.697 65.784 159.905 66.152C160.121 66.512 160.417 66.796 160.793 67.004C161.177 67.204 161.613 67.304 162.101 67.304C162.485 67.304 162.841 67.236 163.169 67.1C163.505 66.964 163.793 66.756 164.033 66.476L164.513 67.028C164.233 67.364 163.881 67.62 163.457 67.796C163.041 67.972 162.581 68.06 162.077 68.06ZM168.335 68.06C167.815 68.06 167.323 67.988 166.859 67.844C166.395 67.692 166.031 67.504 165.767 67.28L166.151 66.608C166.407 66.8 166.735 66.968 167.135 67.112C167.535 67.248 167.955 67.316 168.395 67.316C168.995 67.316 169.427 67.224 169.691 67.04C169.955 66.848 170.087 66.596 170.087 66.284C170.087 66.052 170.011 65.872 169.859 65.744C169.715 65.608 169.523 65.508 169.283 65.444C169.043 65.372 168.775 65.312 168.479 65.264C168.183 65.216 167.887 65.16 167.591 65.096C167.303 65.032 167.039 64.94 166.799 64.82C166.559 64.692 166.363 64.52 166.211 64.304C166.067 64.088 165.995 63.8 165.995 63.44C165.995 63.096 166.091 62.788 166.283 62.516C166.475 62.244 166.755 62.032 167.123 61.88C167.499 61.72 167.955 61.64 168.491 61.64C168.899 61.64 169.307 61.696 169.715 61.808C170.123 61.912 170.459 62.052 170.723 62.228L170.351 62.912C170.071 62.72 169.771 62.584 169.451 62.504C169.131 62.416 168.811 62.372 168.491 62.372C167.923 62.372 167.503 62.472 167.231 62.672C166.967 62.864 166.835 63.112 166.835 63.416C166.835 63.656 166.907 63.844 167.051 63.98C167.203 64.116 167.399 64.224 167.639 64.304C167.887 64.376 168.155 64.436 168.443 64.484C168.739 64.532 169.031 64.592 169.319 64.664C169.615 64.728 169.883 64.82 170.123 64.94C170.371 65.052 170.567 65.216 170.711 65.432C170.863 65.64 170.939 65.916 170.939 66.26C170.939 66.628 170.835 66.948 170.627 67.22C170.427 67.484 170.131 67.692 169.739 67.844C169.355 67.988 168.887 68.06 168.335 68.06ZM174.194 68.06C173.674 68.06 173.182 67.988 172.718 67.844C172.254 67.692 171.89 67.504 171.626 67.28L172.01 66.608C172.266 66.8 172.594 66.968 172.994 67.112C173.394 67.248 173.814 67.316 174.254 67.316C174.854 67.316 175.286 67.224 175.55 67.04C175.814 66.848 175.946 66.596 175.946 66.284C175.946 66.052 175.87 65.872 175.718 65.744C175.574 65.608 175.382 65.508 175.142 65.444C174.902 65.372 174.634 65.312 174.338 65.264C174.042 65.216 173.746 65.16 173.45 65.096C173.162 65.032 172.898 64.94 172.658 64.82C172.418 64.692 172.222 64.52 172.07 64.304C171.926 64.088 171.854 63.8 171.854 63.44C171.854 63.096 171.95 62.788 172.142 62.516C172.334 62.244 172.614 62.032 172.982 61.88C173.358 61.72 173.814 61.64 174.35 61.64C174.758 61.64 175.166 61.696 175.574 61.808C175.982 61.912 176.318 62.052 176.582 62.228L176.21 62.912C175.93 62.72 175.63 62.584 175.31 62.504C174.99 62.416 174.67 62.372 174.35 62.372C173.782 62.372 173.362 62.472 173.09 62.672C172.826 62.864 172.694 63.112 172.694 63.416C172.694 63.656 172.766 63.844 172.91 63.98C173.062 64.116 173.258 64.224 173.498 64.304C173.746 64.376 174.014 64.436 174.302 64.484C174.598 64.532 174.89 64.592 175.178 64.664C175.474 64.728 175.742 64.82 175.982 64.94C176.23 65.052 176.426 65.216 176.57 65.432C176.722 65.64 176.798 65.916 176.798 66.26C176.798 66.628 176.694 66.948 176.486 67.22C176.286 67.484 175.99 67.692 175.598 67.844C175.214 67.988 174.746 68.06 174.194 68.06ZM181.682 68V59.6H185.102C185.998 59.6 186.782 59.78 187.454 60.14C188.134 60.492 188.662 60.984 189.038 61.616C189.414 62.248 189.602 62.976 189.602 63.8C189.602 64.624 189.414 65.352 189.038 65.984C188.662 66.616 188.134 67.112 187.454 67.472C186.782 67.824 185.998 68 185.102 68H181.682ZM182.57 67.232H185.054C185.798 67.232 186.442 67.088 186.986 66.8C187.538 66.504 187.966 66.1 188.27 65.588C188.574 65.068 188.726 64.472 188.726 63.8C188.726 63.12 188.574 62.524 188.27 62.012C187.966 61.5 187.538 61.1 186.986 60.812C186.442 60.516 185.798 60.368 185.054 60.368H182.57V67.232ZM195.365 68V66.608L195.329 66.38V64.052C195.329 63.516 195.177 63.104 194.873 62.816C194.577 62.528 194.133 62.384 193.541 62.384C193.133 62.384 192.745 62.452 192.377 62.588C192.009 62.724 191.697 62.904 191.441 63.128L191.057 62.492C191.377 62.22 191.761 62.012 192.209 61.868C192.657 61.716 193.129 61.64 193.625 61.64C194.441 61.64 195.069 61.844 195.509 62.252C195.957 62.652 196.181 63.264 196.181 64.088V68H195.365ZM193.193 68.06C192.721 68.06 192.309 67.984 191.957 67.832C191.613 67.672 191.349 67.456 191.165 67.184C190.981 66.904 190.889 66.584 190.889 66.224C190.889 65.896 190.965 65.6 191.117 65.336C191.277 65.064 191.533 64.848 191.885 64.688C192.245 64.52 192.725 64.436 193.325 64.436H195.497V65.072H193.349C192.741 65.072 192.317 65.18 192.077 65.396C191.845 65.612 191.729 65.88 191.729 66.2C191.729 66.56 191.869 66.848 192.149 67.064C192.429 67.28 192.821 67.388 193.325 67.388C193.805 67.388 194.217 67.28 194.561 67.064C194.913 66.84 195.169 66.52 195.329 66.104L195.521 66.692C195.361 67.108 195.081 67.44 194.681 67.688C194.289 67.936 193.793 68.06 193.193 68.06ZM200.487 68.06C199.895 68.06 199.439 67.9 199.119 67.58C198.799 67.26 198.639 66.808 198.639 66.224V60.308H199.491V66.176C199.491 66.544 199.583 66.828 199.767 67.028C199.959 67.228 200.231 67.328 200.583 67.328C200.959 67.328 201.271 67.22 201.519 67.004L201.819 67.616C201.651 67.768 201.447 67.88 201.207 67.952C200.975 68.024 200.735 68.06 200.487 68.06ZM197.511 62.408V61.7H201.411V62.408H197.511ZM207.318 68V66.608L207.282 66.38V64.052C207.282 63.516 207.13 63.104 206.826 62.816C206.53 62.528 206.086 62.384 205.494 62.384C205.086 62.384 204.698 62.452 204.33 62.588C203.962 62.724 203.65 62.904 203.394 63.128L203.01 62.492C203.33 62.22 203.714 62.012 204.162 61.868C204.61 61.716 205.082 61.64 205.578 61.64C206.394 61.64 207.022 61.844 207.462 62.252C207.91 62.652 208.134 63.264 208.134 64.088V68H207.318ZM205.146 68.06C204.674 68.06 204.262 67.984 203.91 67.832C203.566 67.672 203.302 67.456 203.118 67.184C202.934 66.904 202.842 66.584 202.842 66.224C202.842 65.896 202.918 65.6 203.07 65.336C203.23 65.064 203.486 64.848 203.838 64.688C204.198 64.52 204.678 64.436 205.278 64.436H207.45V65.072H205.302C204.694 65.072 204.27 65.18 204.03 65.396C203.798 65.612 203.682 65.88 203.682 66.2C203.682 66.56 203.822 66.848 204.102 67.064C204.382 67.28 204.774 67.388 205.278 67.388C205.758 67.388 206.17 67.28 206.514 67.064C206.866 66.84 207.122 66.52 207.282 66.104L207.474 66.692C207.314 67.108 207.034 67.44 206.634 67.688C206.242 67.936 205.746 68.06 205.146 68.06Z" fill="#5258B5"/>
<rect x="273" width="48" height="48" rx="24" fill="#5258B5"/>
<path d="M297 14.0002L300.09 20.2602L307 21.2702L302 26.1402L303.18 33.0202L297 29.7702L290.82 33.0202L292 26.1402L287 21.2702L293.91 20.2602L297 14.0002Z" stroke="white" stroke-width="2" stroke-linecap="round" stroke-linejoin="round"/>
<path d="M265.744 63.356H270.184V64.112H265.744V63.356ZM265.84 67.232H270.892V68H264.952V59.6H270.712V60.368H265.84V67.232ZM271.664 68L274.328 64.544L274.316 64.964L271.784 61.7H272.744L274.82 64.4L274.46 64.388L276.536 61.7H277.472L274.916 65L274.928 64.544L277.616 68H276.644L274.448 65.12L274.784 65.168L272.624 68H271.664ZM282.286 68.06C281.742 68.06 281.25 67.936 280.81 67.688C280.37 67.432 280.018 67.068 279.754 66.596C279.498 66.116 279.37 65.532 279.37 64.844C279.37 64.156 279.498 63.576 279.754 63.104C280.01 62.624 280.358 62.26 280.798 62.012C281.238 61.764 281.734 61.64 282.286 61.64C282.886 61.64 283.422 61.776 283.894 62.048C284.374 62.312 284.75 62.688 285.022 63.176C285.294 63.656 285.43 64.212 285.43 64.844C285.43 65.484 285.294 66.044 285.022 66.524C284.75 67.004 284.374 67.38 283.894 67.652C283.422 67.924 282.886 68.06 282.286 68.06ZM279.034 70.328V61.7H279.85V63.596L279.766 64.856L279.886 66.128V70.328H279.034ZM282.226 67.304C282.674 67.304 283.074 67.204 283.426 67.004C283.778 66.796 284.058 66.508 284.266 66.14C284.474 65.764 284.578 65.332 284.578 64.844C284.578 64.356 284.474 63.928 284.266 63.56C284.058 63.192 283.778 62.904 283.426 62.696C283.074 62.488 282.674 62.384 282.226 62.384C281.778 62.384 281.374 62.488 281.014 62.696C280.662 62.904 280.382 63.192 280.174 63.56C279.974 63.928 279.874 64.356 279.874 64.844C279.874 65.332 279.974 65.764 280.174 66.14C280.382 66.508 280.662 66.796 281.014 67.004C281.374 67.204 281.778 67.304 282.226 67.304ZM289.843 68.06C289.187 68.06 288.611 67.924 288.115 67.652C287.619 67.372 287.231 66.992 286.951 66.512C286.671 66.024 286.531 65.468 286.531 64.844C286.531 64.22 286.663 63.668 286.927 63.188C287.199 62.708 287.567 62.332 288.031 62.06C288.503 61.78 289.031 61.64 289.615 61.64C290.207 61.64 290.731 61.776 291.187 62.048C291.651 62.312 292.015 62.688 292.279 63.176C292.543 63.656 292.675 64.212 292.675 64.844C292.675 64.884 292.671 64.928 292.663 64.976C292.663 65.016 292.663 65.06 292.663 65.108H287.179V64.472H292.207L291.871 64.724C291.871 64.268 291.771 63.864 291.571 63.512C291.379 63.152 291.115 62.872 290.779 62.672C290.443 62.472 290.055 62.372 289.615 62.372C289.183 62.372 288.795 62.472 288.451 62.672C288.107 62.872 287.839 63.152 287.647 63.512C287.455 63.872 287.359 64.284 287.359 64.748V64.88C287.359 65.36 287.463 65.784 287.671 66.152C287.887 66.512 288.183 66.796 288.559 67.004C288.943 67.204 289.379 67.304 289.867 67.304C290.251 67.304 290.607 67.236 290.935 67.1C291.271 66.964 291.559 66.756 291.799 66.476L292.279 67.028C291.999 67.364 291.647 67.62 291.223 67.796C290.807 67.972 290.347 68.06 289.843 68.06ZM294.409 68V61.7H295.225V63.416L295.141 63.116C295.317 62.636 295.613 62.272 296.029 62.024C296.445 61.768 296.961 61.64 297.577 61.64V62.468C297.545 62.468 297.513 62.468 297.481 62.468C297.449 62.46 297.417 62.456 297.385 62.456C296.721 62.456 296.201 62.66 295.825 63.068C295.449 63.468 295.261 64.04 295.261 64.784V68H294.409ZM299.131 68V61.7H299.983V68H299.131ZM299.563 60.308C299.387 60.308 299.239 60.248 299.119 60.128C298.999 60.008 298.939 59.864 298.939 59.696C298.939 59.528 298.999 59.388 299.119 59.276C299.239 59.156 299.387 59.096 299.563 59.096C299.739 59.096 299.887 59.152 300.007 59.264C300.127 59.376 300.187 59.516 300.187 59.684C300.187 59.86 300.127 60.008 300.007 60.128C299.895 60.248 299.747 60.308 299.563 60.308ZM305.03 68.06C304.374 68.06 303.798 67.924 303.302 67.652C302.806 67.372 302.418 66.992 302.138 66.512C301.858 66.024 301.718 65.468 301.718 64.844C301.718 64.22 301.85 63.668 302.114 63.188C302.386 62.708 302.754 62.332 303.218 62.06C303.69 61.78 304.218 61.64 304.802 61.64C305.394 61.64 305.918 61.776 306.374 62.048C306.838 62.312 307.202 62.688 307.466 63.176C307.73 63.656 307.862 64.212 307.862 64.844C307.862 64.884 307.858 64.928 307.85 64.976C307.85 65.016 307.85 65.06 307.85 65.108H302.366V64.472H307.394L307.058 64.724C307.058 64.268 306.958 63.864 306.758 63.512C306.566 63.152 306.302 62.872 305.966 62.672C305.63 62.472 305.242 62.372 304.802 62.372C304.37 62.372 303.982 62.472 303.638 62.672C303.294 62.872 303.026 63.152 302.834 63.512C302.642 63.872 302.546 64.284 302.546 64.748V64.88C302.546 65.36 302.65 65.784 302.858 66.152C303.074 66.512 303.37 66.796 303.746 67.004C304.13 67.204 304.566 67.304 305.054 67.304C305.438 67.304 305.794 67.236 306.122 67.1C306.458 66.964 306.746 66.756 306.986 66.476L307.466 67.028C307.186 67.364 306.834 67.62 306.41 67.796C305.994 67.972 305.534 68.06 305.03 68.06ZM312.812 61.64C313.324 61.64 313.772 61.74 314.156 61.94C314.548 62.132 314.852 62.428 315.068 62.828C315.292 63.228 315.404 63.732 315.404 64.34V68H314.552V64.424C314.552 63.76 314.384 63.26 314.048 62.924C313.72 62.58 313.256 62.408 312.656 62.408C312.208 62.408 311.816 62.5 311.48 62.684C311.152 62.86 310.896 63.12 310.712 63.464C310.536 63.8 310.448 64.208 310.448 64.688V68H309.596V61.7H310.412V63.428L310.28 63.104C310.48 62.648 310.8 62.292 311.24 62.036C311.68 61.772 312.204 61.64 312.812 61.64ZM320.322 68.06C319.698 68.06 319.138 67.924 318.642 67.652C318.154 67.372 317.77 66.992 317.49 66.512C317.21 66.024 317.07 65.468 317.07 64.844C317.07 64.212 317.21 63.656 317.49 63.176C317.77 62.696 318.154 62.32 318.642 62.048C319.138 61.776 319.698 61.64 320.322 61.64C320.858 61.64 321.342 61.744 321.774 61.952C322.206 62.16 322.546 62.472 322.794 62.888L322.158 63.32C321.942 63 321.674 62.764 321.354 62.612C321.034 62.46 320.686 62.384 320.31 62.384C319.862 62.384 319.458 62.488 319.098 62.696C318.738 62.896 318.454 63.18 318.246 63.548C318.038 63.916 317.934 64.348 317.934 64.844C317.934 65.34 318.038 65.772 318.246 66.14C318.454 66.508 318.738 66.796 319.098 67.004C319.458 67.204 319.862 67.304 320.31 67.304C320.686 67.304 321.034 67.228 321.354 67.076C321.674 66.924 321.942 66.692 322.158 66.38L322.794 66.812C322.546 67.22 322.206 67.532 321.774 67.748C321.342 67.956 320.858 68.06 320.322 68.06ZM327.038 68.06C326.382 68.06 325.806 67.924 325.31 67.652C324.814 67.372 324.426 66.992 324.146 66.512C323.866 66.024 323.726 65.468 323.726 64.844C323.726 64.22 323.858 63.668 324.122 63.188C324.394 62.708 324.762 62.332 325.226 62.06C325.698 61.78 326.226 61.64 326.81 61.64C327.402 61.64 327.926 61.776 328.382 62.048C328.846 62.312 329.21 62.688 329.474 63.176C329.738 63.656 329.87 64.212 329.87 64.844C329.87 64.884 329.866 64.928 329.858 64.976C329.858 65.016 329.858 65.06 329.858 65.108H324.374V64.472H329.402L329.066 64.724C329.066 64.268 328.966 63.864 328.766 63.512C328.574 63.152 328.31 62.872 327.974 62.672C327.638 62.472 327.25 62.372 326.81 62.372C326.378 62.372 325.99 62.472 325.646 62.672C325.302 62.872 325.034 63.152 324.842 63.512C324.65 63.872 324.554 64.284 324.554 64.748V64.88C324.554 65.36 324.658 65.784 324.866 66.152C325.082 66.512 325.378 66.796 325.754 67.004C326.138 67.204 326.574 67.304 327.062 67.304C327.446 67.304 327.802 67.236 328.13 67.1C328.466 66.964 328.754 66.756 328.994 66.476L329.474 67.028C329.194 67.364 328.842 67.62 328.418 67.796C328.002 67.972 327.542 68.06 327.038 68.06Z" fill="#5258B5"/>
<rect x="401" width="48" height="48" rx="24" fill="#797979"/>
<path d="M431.367 14.1229C431.124 14.0418 430.869 14.0005 430.612 14.0005H419C418.47 14.0005 417.961 14.2112 417.586 14.5863C417.211 14.9613 417 15.4701 417 16.0005V32.0005C417 32.5309 417.211 33.0396 417.586 33.4147C417.961 33.7897 418.47 34.0005 419 34.0005H431C431.53 34.0005 432.039 33.7897 432.414 33.4147C432.789 33.0396 433 32.5309 433 32.0005V16.3883C433 16.1314 432.959 15.8763 432.877 15.6326V15.6326C432.639 14.9198 432.08 14.3604 431.367 14.1229V14.1229Z" stroke="white" stroke-width="2" stroke-linecap="round" stroke-linejoin="round"/>
<path d="M429 29H421" stroke="white" stroke-width="2" stroke-linecap="round" stroke-linejoin="round"/>
<path d="M429 24H421" stroke="white" stroke-width="2" stroke-linecap="round" stroke-linejoin="round"/>
<path d="M423 19H422H421" stroke="white" stroke-width="2" stroke-linecap="round" stroke-linejoin="round"/>
<path d="M398.948 68.072C398.324 68.072 397.724 67.972 397.148 67.772C396.58 67.564 396.14 67.3 395.828 66.98L396.176 66.296C396.472 66.584 396.868 66.828 397.364 67.028C397.868 67.22 398.396 67.316 398.948 67.316C399.476 67.316 399.904 67.252 400.232 67.124C400.568 66.988 400.812 66.808 400.964 66.584C401.124 66.36 401.204 66.112 401.204 65.84C401.204 65.512 401.108 65.248 400.916 65.048C400.732 64.848 400.488 64.692 400.184 64.58C399.88 64.46 399.544 64.356 399.176 64.268C398.808 64.18 398.44 64.088 398.072 63.992C397.704 63.888 397.364 63.752 397.052 63.584C396.748 63.416 396.5 63.196 396.308 62.924C396.124 62.644 396.032 62.28 396.032 61.832C396.032 61.416 396.14 61.036 396.356 60.692C396.58 60.34 396.92 60.06 397.376 59.852C397.832 59.636 398.416 59.528 399.128 59.528C399.6 59.528 400.068 59.596 400.532 59.732C400.996 59.86 401.396 60.04 401.732 60.272L401.432 60.98C401.072 60.74 400.688 60.564 400.28 60.452C399.88 60.34 399.492 60.284 399.116 60.284C398.612 60.284 398.196 60.352 397.868 60.488C397.54 60.624 397.296 60.808 397.136 61.04C396.984 61.264 396.908 61.52 396.908 61.808C396.908 62.136 397 62.4 397.184 62.6C397.376 62.8 397.624 62.956 397.928 63.068C398.24 63.18 398.58 63.28 398.948 63.368C399.316 63.456 399.68 63.552 400.04 63.656C400.408 63.76 400.744 63.896 401.048 64.064C401.36 64.224 401.608 64.44 401.792 64.712C401.984 64.984 402.08 65.34 402.08 65.78C402.08 66.188 401.968 66.568 401.744 66.92C401.52 67.264 401.176 67.544 400.712 67.76C400.256 67.968 399.668 68.072 398.948 68.072ZM406.438 68.06C405.902 68.06 405.434 67.96 405.034 67.76C404.634 67.56 404.322 67.26 404.098 66.86C403.882 66.46 403.774 65.96 403.774 65.36V61.7H404.626V65.264C404.626 65.936 404.79 66.444 405.118 66.788C405.454 67.124 405.922 67.292 406.522 67.292C406.962 67.292 407.342 67.204 407.662 67.028C407.99 66.844 408.238 66.58 408.406 66.236C408.582 65.892 408.67 65.48 408.67 65V61.7H409.522V68H408.706V66.272L408.838 66.584C408.638 67.048 408.326 67.412 407.902 67.676C407.486 67.932 406.998 68.06 406.438 68.06ZM419.769 61.64C420.281 61.64 420.725 61.74 421.101 61.94C421.485 62.132 421.781 62.428 421.989 62.828C422.205 63.228 422.313 63.732 422.313 64.34V68H421.461V64.424C421.461 63.76 421.301 63.26 420.981 62.924C420.669 62.58 420.225 62.408 419.649 62.408C419.217 62.408 418.841 62.5 418.521 62.684C418.209 62.86 417.965 63.12 417.789 63.464C417.621 63.8 417.537 64.208 417.537 64.688V68H416.685V64.424C416.685 63.76 416.525 63.26 416.205 62.924C415.885 62.58 415.437 62.408 414.861 62.408C414.437 62.408 414.065 62.5 413.745 62.684C413.425 62.86 413.177 63.12 413.001 63.464C412.833 63.8 412.749 64.208 412.749 64.688V68H411.897V61.7H412.713V63.404L412.581 63.104C412.773 62.648 413.081 62.292 413.505 62.036C413.937 61.772 414.445 61.64 415.029 61.64C415.645 61.64 416.169 61.796 416.601 62.108C417.033 62.412 417.313 62.872 417.441 63.488L417.105 63.356C417.289 62.844 417.613 62.432 418.077 62.12C418.549 61.8 419.113 61.64 419.769 61.64ZM432.496 61.64C433.008 61.64 433.452 61.74 433.828 61.94C434.212 62.132 434.508 62.428 434.716 62.828C434.932 63.228 435.04 63.732 435.04 64.34V68H434.188V64.424C434.188 63.76 434.028 63.26 433.708 62.924C433.396 62.58 432.952 62.408 432.376 62.408C431.944 62.408 431.568 62.5 431.248 62.684C430.936 62.86 430.692 63.12 430.516 63.464C430.348 63.8 430.264 64.208 430.264 64.688V68H429.412V64.424C429.412 63.76 429.252 63.26 428.932 62.924C428.612 62.58 428.164 62.408 427.588 62.408C427.164 62.408 426.792 62.5 426.472 62.684C426.152 62.86 425.904 63.12 425.728 63.464C425.56 63.8 425.476 64.208 425.476 64.688V68H424.624V61.7H425.44V63.404L425.308 63.104C425.5 62.648 425.808 62.292 426.232 62.036C426.664 61.772 427.172 61.64 427.756 61.64C428.372 61.64 428.896 61.796 429.328 62.108C429.76 62.412 430.04 62.872 430.168 63.488L429.832 63.356C430.016 62.844 430.34 62.432 430.804 62.12C431.276 61.8 431.84 61.64 432.496 61.64ZM441.298 68V66.608L441.262 66.38V64.052C441.262 63.516 441.11 63.104 440.806 62.816C440.51 62.528 440.066 62.384 439.474 62.384C439.066 62.384 438.678 62.452 438.31 62.588C437.942 62.724 437.63 62.904 437.374 63.128L436.99 62.492C437.31 62.22 437.694 62.012 438.142 61.868C438.59 61.716 439.062 61.64 439.558 61.64C440.374 61.64 441.002 61.844 441.442 62.252C441.89 62.652 442.114 63.264 442.114 64.088V68H441.298ZM439.126 68.06C438.654 68.06 438.242 67.984 437.89 67.832C437.546 67.672 437.282 67.456 437.098 67.184C436.914 66.904 436.822 66.584 436.822 66.224C436.822 65.896 436.898 65.6 437.05 65.336C437.21 65.064 437.466 64.848 437.818 64.688C438.178 64.52 438.658 64.436 439.258 64.436H441.43V65.072H439.282C438.674 65.072 438.25 65.18 438.01 65.396C437.778 65.612 437.662 65.88 437.662 66.2C437.662 66.56 437.802 66.848 438.082 67.064C438.362 67.28 438.754 67.388 439.258 67.388C439.738 67.388 440.15 67.28 440.494 67.064C440.846 66.84 441.102 66.52 441.262 66.104L441.454 66.692C441.294 67.108 441.014 67.44 440.614 67.688C440.222 67.936 439.726 68.06 439.126 68.06ZM444.428 68V61.7H445.244V63.416L445.16 63.116C445.336 62.636 445.632 62.272 446.048 62.024C446.464 61.768 446.98 61.64 447.596 61.64V62.468C447.564 62.468 447.532 62.468 447.5 62.468C447.468 62.46 447.436 62.456 447.404 62.456C446.74 62.456 446.22 62.66 445.844 63.068C445.468 63.468 445.28 64.04 445.28 64.784V68H444.428ZM449.468 70.388C449.172 70.388 448.888 70.34 448.616 70.244C448.352 70.148 448.124 70.004 447.932 69.812L448.328 69.176C448.488 69.328 448.66 69.444 448.844 69.524C449.036 69.612 449.248 69.656 449.48 69.656C449.76 69.656 450 69.576 450.2 69.416C450.408 69.264 450.604 68.992 450.788 68.6L451.196 67.676L451.292 67.544L453.884 61.7H454.724L451.568 68.756C451.392 69.164 451.196 69.488 450.98 69.728C450.772 69.968 450.544 70.136 450.296 70.232C450.048 70.336 449.772 70.388 449.468 70.388ZM451.148 68.18L448.244 61.7H449.132L451.7 67.484L451.148 68.18Z" fill="#5E5E5E"/>
</svg>
