<svg width="128" height="128" viewBox="0 0 128 128" fill="none" xmlns="http://www.w3.org/2000/svg">
<path d="M56.9361 18C45.3126 18 37.2565 22.2961 31.618 28.7637C26.1528 35.0282 23.1445 43.1204 20.9238 50.3926L18.892 57.0398H4.9375C3.89321 57.0398 2.89169 57.4513 2.15327 58.1837C1.41484 58.9161 1 59.9095 1 60.9453C1 69.35 4.91387 77.3642 11.2139 81.4885L7.741 89.8619C7.09354 91.4171 6.84271 93.1067 7.01074 94.781C7.17876 96.4553 7.76045 98.0627 8.70429 99.4608C9.64813 100.859 10.925 102.005 12.4218 102.796C13.9186 103.588 15.5891 104.002 17.2855 104H28.7988C32.7993 104 36.4375 101.704 38.1385 98.1182L41.8397 90.3072C52.1875 91.7288 62.6691 91.7288 73.0169 90.3072L76.7181 98.1182C78.4191 101.711 82.0574 104 86.0579 104H97.4609C99.1572 104.002 100.828 103.588 102.325 102.796C103.821 102.005 105.098 100.859 106.042 99.4608C106.986 98.0627 107.568 96.4553 107.736 94.781C107.904 93.1067 107.653 91.4171 107.005 89.8619L103.084 80.4418H116.495C121.81 80.4418 127 76.3722 127 70.6232V64.8509C127 55.9697 119.219 49.2599 110.297 49.2599H93.9565C91.7042 42.1753 88.3968 34.6064 82.8685 28.6699C76.8992 22.2727 68.5518 18 56.9361 18ZM100.792 72.6385L96.256 57.0632H110.297C115.471 57.0632 119.125 60.8516 119.125 64.843V70.6311C119.125 71.3341 118.235 72.6385 116.495 72.6385H100.792ZM96.2954 84.6051L99.721 92.8458C99.8754 93.2142 99.9356 93.6147 99.8964 94.0118C99.8571 94.4088 99.7195 94.7901 99.4958 95.1217C99.2722 95.4533 98.9694 95.725 98.6144 95.9125C98.2593 96.1001 97.8631 96.1977 97.4609 96.1967H86.0579C85.5931 96.1968 85.138 96.0652 84.746 95.8176C84.354 95.5699 84.0414 95.2164 83.845 94.7985L81.0573 88.9168C86.2299 87.8264 91.3212 86.3858 96.2954 84.6051ZM33.7994 88.9246L31.0116 94.7985C30.8158 95.2151 30.5044 95.5679 30.114 95.8155C29.7235 96.0631 29.2701 96.1953 28.8066 96.1967H17.2776C16.8761 96.1958 16.481 96.0969 16.127 95.9088C15.7731 95.7208 15.4712 95.4493 15.2479 95.1182C15.0246 94.7872 14.8868 94.4068 14.8467 94.0105C14.8065 93.6143 14.8651 93.2143 15.0175 92.8458L18.4431 84.5738C23.4831 86.386 28.6176 87.8389 33.7994 88.9246ZM13.852 73.5758C11.4301 71.2189 9.81584 68.1669 9.23725 64.8509H16.5138L13.852 73.5758ZM28.468 52.6578C30.6336 45.5341 33.2639 38.8165 37.5715 33.8721C41.7059 29.1308 47.5728 25.8111 56.944 25.8111C66.3389 25.8111 72.5995 29.1542 77.0882 33.9658C81.703 38.9259 84.6325 45.6434 86.7745 52.6343L93.9093 77.1533C70.3668 85.6998 44.5348 85.7081 20.9868 77.1767L28.468 52.6499V52.6578Z" fill="white"/>
</svg>
