<svg width="128" height="128" viewBox="0 0 128 128" fill="none" xmlns="http://www.w3.org/2000/svg">
<path d="M48 70C48 71.1867 47.6481 72.3467 46.9888 73.3334C46.3295 74.3201 45.3925 75.0891 44.2961 75.5433C43.1997 75.9974 41.9933 76.1162 40.8295 75.8847C39.6656 75.6532 38.5965 75.0817 37.7574 74.2426C36.9182 73.4035 36.3468 72.3344 36.1153 71.1705C35.8838 70.0066 36.0026 68.8002 36.4567 67.7039C36.9108 66.6075 37.6799 65.6705 38.6666 65.0112C39.6533 64.3519 40.8133 64 42 64C43.5913 64 45.1174 64.6321 46.2426 65.7574C47.3679 66.8826 48 68.4087 48 70ZM86 64C84.8133 64 83.6533 64.3519 82.6666 65.0112C81.6799 65.6705 80.9109 66.6075 80.4567 67.7039C80.0026 68.8002 79.8838 70.0066 80.1153 71.1705C80.3468 72.3344 80.9183 73.4035 81.7574 74.2426C82.5965 75.0817 83.6656 75.6532 84.8295 75.8847C85.9933 76.1162 87.1997 75.9974 88.2961 75.5433C89.3925 75.0891 90.3295 74.3201 90.9888 73.3334C91.6481 72.3467 92 71.1867 92 70C92 68.4087 91.3679 66.8826 90.2426 65.7574C89.1174 64.6321 87.5913 64 86 64ZM116 24V68C116 94.465 92.675 116 64 116C35.325 116 12 94.465 12 68V24C12.0007 22.4183 12.4703 20.8723 13.3494 19.5574C14.2285 18.2425 15.4777 17.2176 16.939 16.6125C18.4004 16.0073 20.0083 15.8488 21.5597 16.1572C23.1111 16.4656 24.5362 17.2269 25.655 18.345C25.725 18.415 25.785 18.48 25.845 18.55L34.5 28.5C43.3497 22.9554 53.5818 20.0148 64.025 20.0148C74.4682 20.0148 84.7003 22.9554 93.55 28.5L102.155 18.55C102.215 18.48 102.275 18.415 102.345 18.345C103.464 17.2269 104.889 16.4656 106.44 16.1572C107.992 15.8488 109.6 16.0073 111.061 16.6125C112.522 17.2176 113.771 18.2425 114.651 19.5574C115.53 20.8723 115.999 22.4183 116 24ZM108 24L97.22 36.4C96.5606 37.1629 95.6374 37.6485 94.6351 37.7598C93.6329 37.871 92.6257 37.5997 91.815 37C89.3748 35.1955 86.7561 33.6457 84 32.375V44C84 45.0609 83.5786 46.0783 82.8284 46.8284C82.0783 47.5786 81.0609 48 80 48C78.9391 48 77.9217 47.5786 77.1716 46.8284C76.4214 46.0783 76 45.0609 76 44V29.525C73.3758 28.85 70.6998 28.395 68 28.165V44C68 45.0609 67.5786 46.0783 66.8284 46.8284C66.0783 47.5786 65.0609 48 64 48C62.9391 48 61.9217 47.5786 61.1716 46.8284C60.4214 46.0783 60 45.0609 60 44V28.165C57.3002 28.395 54.6242 28.85 52 29.525V44C52 45.0609 51.5786 46.0783 50.8284 46.8284C50.0783 47.5786 49.0609 48 48 48C46.9391 48 45.9217 47.5786 45.1716 46.8284C44.4214 46.0783 44 45.0609 44 44V32.375C41.2439 33.6457 38.6252 35.1955 36.185 37C35.3761 37.6014 34.37 37.8753 33.3678 37.7669C32.3657 37.6584 31.4415 37.1756 30.78 36.415L20 24V68C20 88.83 37.605 106 60 107.835V97.655L53.17 90.825C52.7987 90.4533 52.5042 90.0122 52.3034 89.5268C52.1026 89.0413 51.9993 88.5211 51.9995 87.9957C51.9998 87.4704 52.1035 86.9502 52.3047 86.465C52.506 85.9797 52.8009 85.5388 53.1725 85.1675C53.9231 84.4176 54.9408 83.9966 56.0018 83.997C56.5271 83.9973 57.0473 84.101 57.5325 84.3022C58.0178 84.5035 58.4587 84.7983 58.83 85.17L64 90.34L69.17 85.17C69.5413 84.7983 69.9822 84.5035 70.4675 84.3022C70.9527 84.101 71.4729 83.9973 71.9982 83.997C72.5236 83.9968 73.0438 84.1 73.5293 84.3009C74.0147 84.5017 74.4559 84.7962 74.8275 85.1675C75.1991 85.5388 75.494 85.9797 75.6953 86.465C75.8965 86.9502 76.0002 87.4704 76.0005 87.9957C76.0007 88.5211 75.8974 89.0413 75.6966 89.5268C75.4958 90.0122 75.2013 90.4533 74.83 90.825L68 97.655V107.835C90.395 105.99 108 88.835 108 68V24Z" fill="white"/>
</svg>
