<svg width="128" height="128" viewBox="0 0 128 128" fill="none" xmlns="http://www.w3.org/2000/svg">
<path d="M119.855 62.5L111.645 18.5C111.444 17.4275 111.027 16.4073 110.417 15.5023C109.808 14.5973 109.019 13.8265 108.101 13.2373C107.183 12.6481 106.154 12.2531 105.077 12.0764C104 11.8997 102.899 11.9452 101.84 12.21L101.685 12.255L75.4251 20H52.5751L26.3151 12.28L26.1601 12.235C25.1016 11.9702 24.0001 11.9247 22.9234 12.1014C21.8467 12.2781 20.8175 12.6731 19.8991 13.2623C18.9807 13.8515 18.1925 14.6223 17.5831 15.5273C16.9736 16.4323 16.5557 17.4525 16.3551 18.525L8.14509 62.5C7.794 64.2611 8.05461 66.0894 8.8838 67.6823C9.71298 69.2752 11.0611 70.5374 12.7051 71.26C13.7579 71.7428 14.9018 71.9951 16.0601 72C17.4464 71.9993 18.8072 71.6263 20.0001 70.92V92C20.0001 97.3043 22.1072 102.391 25.8579 106.142C29.6087 109.893 34.6958 112 40.0001 112H88.0001C93.3044 112 98.3915 109.893 102.142 106.142C105.893 102.391 108 97.3043 108 92V70.925C109.192 71.63 110.55 72.003 111.935 72.005C113.095 72.0016 114.24 71.7511 115.295 71.27C116.941 70.547 118.291 69.2833 119.12 67.6882C119.949 66.0932 120.209 64.2626 119.855 62.5ZM16.0001 64L24.2151 20L45.2501 26.185L16.0001 64ZM88.0001 104H68.0001V97.655L74.8301 90.83C75.5807 90.0794 76.0023 89.0614 76.0023 88C76.0023 86.9385 75.5807 85.9206 74.8301 85.17C74.0795 84.4194 73.0615 83.9978 72.0001 83.9978C70.9386 83.9978 69.9206 84.4194 69.1701 85.17L64.0001 90.345L58.8301 85.17C58.0795 84.4194 57.0615 83.9978 56.0001 83.9978C54.9386 83.9978 53.9206 84.4194 53.1701 85.17C52.4195 85.9206 51.9979 86.9385 51.9979 88C51.9979 89.0614 52.4195 90.0794 53.1701 90.83L60.0001 97.655V104H40.0001C36.8175 104 33.7652 102.736 31.5148 100.485C29.2644 98.2348 28.0001 95.1826 28.0001 92V61.555L53.9601 28H74.0351L100 61.555V92C100 95.1826 98.7358 98.2348 96.4854 100.485C94.2349 102.736 91.1827 104 88.0001 104ZM112 64L82.7501 26.185L103.785 20L112 64ZM52.0001 70C52.0001 71.1867 51.6482 72.3467 50.9889 73.3334C50.3296 74.3201 49.3925 75.0891 48.2962 75.5433C47.1998 75.9974 45.9934 76.1162 44.8295 75.8847C43.6657 75.6532 42.5966 75.0817 41.7574 74.2426C40.9183 73.4035 40.3469 72.3344 40.1154 71.1705C39.8839 70.0066 40.0027 68.8002 40.4568 67.7039C40.9109 66.6075 41.68 65.6705 42.6667 65.0112C43.6534 64.3519 44.8134 64 46.0001 64C47.5914 64 49.1175 64.6321 50.2427 65.7574C51.3679 66.8826 52.0001 68.4087 52.0001 70ZM88.0001 70C88.0001 71.1867 87.6482 72.3467 86.9889 73.3334C86.3296 74.3201 85.3925 75.0891 84.2962 75.5433C83.1998 75.9974 81.9934 76.1162 80.8295 75.8847C79.6657 75.6532 78.5966 75.0817 77.7574 74.2426C76.9183 73.4035 76.3469 72.3344 76.1154 71.1705C75.8839 70.0066 76.0027 68.8002 76.4568 67.7039C76.9109 66.6075 77.68 65.6705 78.6667 65.0112C79.6534 64.3519 80.8134 64 82.0001 64C83.5914 64 85.1175 64.6321 86.2427 65.7574C87.3679 66.8826 88.0001 68.4087 88.0001 70Z" fill="white"/>
</svg>
