<svg width="94" height="18" viewBox="0 0 94 18" fill="none" xmlns="http://www.w3.org/2000/svg">
<path d="M11.928 13.808H5.256L4.152 17H0.624L6.648 0.223999H10.56L16.584 17H13.032L11.928 13.808ZM11.016 11.12L8.592 4.112L6.168 11.12H11.016ZM24.6917 0.248C26.4517 0.248 27.9957 0.592 29.3237 1.28C30.6677 1.968 31.6997 2.952 32.4197 4.232C33.1557 5.496 33.5237 6.968 33.5237 8.648C33.5237 10.328 33.1557 11.8 32.4197 13.064C31.6997 14.312 30.6677 15.28 29.3237 15.968C27.9957 16.656 26.4517 17 24.6917 17H18.8357V0.248H24.6917ZM24.5717 14.144C26.3317 14.144 27.6917 13.664 28.6517 12.704C29.6117 11.744 30.0917 10.392 30.0917 8.648C30.0917 6.904 29.6117 5.544 28.6517 4.568C27.6917 3.576 26.3317 3.08 24.5717 3.08H22.1957V14.144H24.5717ZM43.8148 17.168C42.2468 17.168 40.8068 16.8 39.4948 16.064C38.1828 15.328 37.1428 14.312 36.3748 13.016C35.6068 11.704 35.2228 10.224 35.2228 8.576C35.2228 6.944 35.6068 5.48 36.3748 4.184C37.1428 2.872 38.1828 1.848 39.4948 1.112C40.8068 0.375999 42.2468 0.0079999 43.8148 0.0079999C45.3988 0.0079999 46.8388 0.375999 48.1348 1.112C49.4468 1.848 50.4788 2.872 51.2308 4.184C51.9988 5.48 52.3828 6.944 52.3828 8.576C52.3828 10.224 51.9988 11.704 51.2308 13.016C50.4788 14.312 49.4468 15.328 48.1348 16.064C46.8228 16.8 45.3828 17.168 43.8148 17.168ZM43.8148 14.168C44.8228 14.168 45.7108 13.944 46.4788 13.496C47.2468 13.032 47.8468 12.376 48.2788 11.528C48.7108 10.68 48.9268 9.696 48.9268 8.576C48.9268 7.456 48.7108 6.48 48.2788 5.648C47.8468 4.8 47.2468 4.152 46.4788 3.704C45.7108 3.256 44.8228 3.032 43.8148 3.032C42.8068 3.032 41.9108 3.256 41.1268 3.704C40.3588 4.152 39.7588 4.8 39.3268 5.648C38.8948 6.48 38.6788 7.456 38.6788 8.576C38.6788 9.696 38.8948 10.68 39.3268 11.528C39.7588 12.376 40.3588 13.032 41.1268 13.496C41.9108 13.944 42.8068 14.168 43.8148 14.168ZM67.0986 5.432C67.0986 6.328 66.8826 7.168 66.4506 7.952C66.0346 8.736 65.3706 9.368 64.4586 9.848C63.5626 10.328 62.4266 10.568 61.0506 10.568H58.2426V17H54.8826V0.248H61.0506C62.3466 0.248 63.4506 0.472 64.3626 0.92C65.2746 1.368 65.9546 1.984 66.4026 2.768C66.8666 3.552 67.0986 4.44 67.0986 5.432ZM60.9066 7.856C61.8346 7.856 62.5226 7.648 62.9706 7.232C63.4186 6.8 63.6426 6.2 63.6426 5.432C63.6426 3.8 62.7306 2.984 60.9066 2.984H58.2426V7.856H60.9066ZM72.8441 2.96V7.16H78.4841V9.824H72.8441V14.264H79.2041V17H69.4841V0.223999H79.2041V2.96H72.8441ZM93.6576 0.248V2.96H89.1936V17H85.8336V2.96H81.3696V0.248H93.6576Z" fill="#5E5E5E"/>
</svg>
