<svg width="33" height="33" viewBox="0 0 33 33" fill="none" xmlns="http://www.w3.org/2000/svg">
<path d="M27.9636 6.39318C27.2966 5.72584 26.5046 5.19646 25.6329 4.83528C24.7613 4.47411 23.827 4.28821 22.8834 4.28821C21.9399 4.28821 21.0056 4.47411 20.1339 4.83528C19.2623 5.19646 18.4703 5.72584 17.8033 6.39318L16.4189 7.77749L15.0346 6.39318C13.6873 5.04584 11.8599 4.28891 9.95447 4.28891C8.04903 4.28891 6.22164 5.04584 4.8743 6.39318C3.52695 7.74052 2.77002 9.56791 2.77002 11.4733C2.77002 13.3788 3.52695 15.2062 4.8743 16.5535L6.25861 17.9378L16.4189 28.0981L26.5793 17.9378L27.9636 16.5535C28.6309 15.8865 29.1603 15.0945 29.5215 14.2228C29.8827 13.3512 30.0686 12.4169 30.0686 11.4733C30.0686 10.5298 29.8827 9.59552 29.5215 8.72384C29.1603 7.85217 28.6309 7.0602 27.9636 6.39318Z" stroke="#5E5E5E" stroke-width="2.61191" stroke-linecap="round" stroke-linejoin="round"/>
</svg>
