<svg width="128" height="128" viewBox="0 0 128 128" fill="none" xmlns="http://www.w3.org/2000/svg">
<path d="M60 38C47.3225 41.0525 36.4625 51.0775 29.925 56.3575C28.039 54.61 26.0513 52.9755 23.9725 51.4625C14.8825 44.8225 4 44 4 44C4 44 6.8425 56.8825 14.34 63.9575C6.8425 71.035 4 83.9175 4 83.9175C4 83.9175 14.8825 83.095 23.9725 76.455C26.0337 74.955 28.0047 73.3347 29.875 71.6025C36.4 76.8875 47.31 86.9375 60 90L56 104C65.8575 102.332 75.715 95.1225 79.68 91.9375C112 90.5 124 69.75 124 64C124 58.5 112 37.5 79.7775 36.0675C75.88 32.945 65.94 25.68 56 24L60 38Z" stroke="#252525" stroke-width="8" stroke-linejoin="round"/>
<path d="M104 63.9976C106.209 63.9976 108 62.2067 108 59.9976C108 57.7884 106.209 55.9976 104 55.9976C101.791 55.9976 100 57.7884 100 59.9976C100 62.2067 101.791 63.9976 104 63.9976Z" fill="#252525"/>
<path d="M94.5924 89C90.1849 81.4055 87.8634 72.7808 87.8634 64C87.8634 55.2192 90.1849 46.5945 94.5924 39" stroke="#252525" stroke-width="8" stroke-miterlimit="20" stroke-linecap="round"/>
</svg>
