<svg width="128" height="128" viewBox="0 0 128 128" fill="none" xmlns="http://www.w3.org/2000/svg">
<g clip-path="url(#clip0_140_8606)">
<path d="M88.0001 34C88.0001 35.1867 87.6482 36.3467 86.9889 37.3334C86.3296 38.3201 85.3925 39.0892 84.2962 39.5433C83.1998 39.9974 81.9934 40.1162 80.8295 39.8847C79.6656 39.6532 78.5965 39.0818 77.7574 38.2426C76.9183 37.4035 76.3469 36.3344 76.1153 35.1705C75.8838 34.0067 76.0027 32.8003 76.4568 31.7039C76.9109 30.6075 77.6799 29.6705 78.6666 29.0112C79.6533 28.3519 80.8134 28 82.0001 28C83.5914 28 85.1175 28.6321 86.2427 29.7574C87.3679 30.8826 88.0001 32.4087 88.0001 34ZM62.5601 64.925C62.1572 64.5878 61.6919 64.3333 61.1908 64.1759C60.6896 64.0185 60.1623 63.9614 59.639 64.0079C59.1157 64.0543 58.6067 64.2034 58.1411 64.4465C57.6754 64.6897 57.2622 65.0222 56.9251 65.425L36.9251 89.425C36.2461 90.2405 35.9189 91.2924 36.0155 92.3492C36.1121 93.4059 36.6245 94.381 37.4401 95.06C38.2556 95.739 39.3075 96.0661 40.3642 95.9695C41.421 95.873 42.3961 95.3605 43.0751 94.545L63.0751 70.545C63.7496 69.7304 64.0741 68.6819 63.9776 67.6287C63.8811 66.5755 63.3714 65.6034 62.5601 64.925ZM120 40C120 40.6587 119.838 41.3073 119.528 41.8882C119.217 42.4692 118.768 42.9644 118.22 43.33L108 50.14V60C107.986 73.7868 102.502 87.0047 92.7535 96.7535C83.0048 106.502 69.7868 111.985 56.0001 112H4.00006C3.24625 112 2.50765 111.788 1.86938 111.387C1.23112 110.986 0.719173 110.413 0.392551 109.733C0.0659288 109.054 -0.0620744 108.296 0.0232947 107.547C0.108664 106.798 0.40393 106.088 0.875062 105.5L48.0001 46.595V38C47.9933 30.8338 50.552 23.9019 55.2131 18.4588C59.8742 13.0156 66.3299 9.42073 73.4117 8.3247C80.4936 7.22868 87.7339 8.7039 93.8223 12.4834C99.9108 16.2629 104.445 22.097 106.605 28.93L118.22 36.67C118.768 37.0356 119.217 37.5308 119.528 38.1118C119.838 38.6927 120 39.3413 120 40ZM108.79 40L100.95 34.77C100.132 34.2261 99.5432 33.4003 99.2951 32.45C97.9504 27.267 94.7616 22.7522 90.3263 19.7521C85.8911 16.752 80.5139 15.4724 75.2028 16.1533C69.8916 16.8341 65.011 19.4286 61.4759 23.4505C57.9408 27.4723 55.9939 32.6454 56.0001 38V48C56.0008 48.9085 55.6922 49.7902 55.1251 50.5L12.3201 104H56.0001C67.6655 103.987 78.8494 99.3468 87.0981 91.0981C95.3469 82.8493 99.9868 71.6655 100 60V48C99.9996 47.3413 100.162 46.6927 100.472 46.1118C100.783 45.5308 101.232 45.0356 101.78 44.67L108.79 40Z" fill="#252525"/>
</g>
<defs>
<clipPath id="clip0_140_8606">
<rect width="128" height="128" fill="white"/>
</clipPath>
</defs>
</svg>
