<svg width="128" height="128" viewBox="0 0 128 128" fill="none" xmlns="http://www.w3.org/2000/svg">
<path d="M119.855 62.5001L111.645 18.5001C111.444 17.4276 111.026 16.4074 110.417 15.5024C109.808 14.5973 109.019 13.8265 108.101 13.2374C107.183 12.6482 106.153 12.2532 105.077 12.0765C104 11.8998 102.898 11.9453 101.84 12.2101L101.685 12.2551L75.425 20.0001H52.575L26.315 12.2801L26.16 12.2351C25.1015 11.9703 24 11.9248 22.9233 12.1015C21.8465 12.2782 20.8173 12.6732 19.8989 13.2624C18.9806 13.8515 18.1924 14.6223 17.5829 15.5274C16.9735 16.4324 16.5556 17.4526 16.355 18.5251L8.14496 62.5001C7.79388 64.2612 8.05448 66.0895 8.88367 67.6824C9.71286 69.2753 11.061 70.5375 12.705 71.2601C13.7578 71.7429 14.9017 71.9952 16.06 72.0001C17.4463 71.9994 18.8071 71.6264 20 70.9201V92.0001C20 97.3044 22.1071 102.391 25.8578 106.142C29.6086 109.893 34.6956 112 40 112H88C93.3043 112 98.3914 109.893 102.142 106.142C105.893 102.391 108 97.3044 108 92.0001V70.9251C109.192 71.6301 110.55 72.003 111.935 72.0051C113.094 72.0017 114.24 71.7512 115.295 71.2701C116.941 70.5471 118.29 69.2834 119.12 67.6883C119.949 66.0933 120.209 64.2627 119.855 62.5001ZM16 64.0001L24.215 20.0001L45.25 26.1851L16 64.0001ZM88 104H68V97.6551L74.83 90.8301C75.5805 90.0795 76.0022 89.0615 76.0022 88.0001C76.0022 86.9386 75.5805 85.9206 74.83 85.1701C74.0794 84.4195 73.0614 83.9979 72 83.9979C70.9385 83.9979 69.9205 84.4195 69.17 85.1701L64 90.3451L58.83 85.1701C58.0794 84.4195 57.0614 83.9979 56 83.9979C54.9385 83.9979 53.9205 84.4195 53.17 85.1701C52.4194 85.9206 51.9977 86.9386 51.9977 88.0001C51.9977 89.0615 52.4194 90.0795 53.17 90.8301L60 97.6551V104H40C36.8174 104 33.7651 102.736 31.5147 100.485C29.2642 98.2349 28 95.1827 28 92.0001V61.5551L53.96 28.0001H74.035L100 61.5551V92.0001C100 95.1827 98.7357 98.2349 96.4852 100.485C94.2348 102.736 91.1826 104 88 104ZM112 64.0001L82.75 26.1851L103.785 20.0001L112 64.0001ZM52 70.0001C52 71.1868 51.6481 72.3468 50.9888 73.3335C50.3295 74.3202 49.3924 75.0892 48.2961 75.5434C47.1997 75.9975 45.9933 76.1163 44.8294 75.8848C43.6655 75.6533 42.5964 75.0818 41.7573 74.2427C40.9182 73.4036 40.3468 72.3345 40.1152 71.1706C39.8837 70.0067 40.0026 68.8003 40.4567 67.704C40.9108 66.6076 41.6798 65.6706 42.6665 65.0113C43.6532 64.352 44.8133 64.0001 46 64.0001C47.5913 64.0001 49.1174 64.6322 50.2426 65.7574C51.3678 66.8827 52 68.4088 52 70.0001ZM88 70.0001C88 71.1868 87.6481 72.3468 86.9888 73.3335C86.3295 74.3202 85.3924 75.0892 84.2961 75.5434C83.1997 75.9975 81.9933 76.1163 80.8294 75.8848C79.6655 75.6533 78.5964 75.0818 77.7573 74.2427C76.9182 73.4036 76.3468 72.3345 76.1152 71.1706C75.8837 70.0067 76.0026 68.8003 76.4567 67.704C76.9108 66.6076 77.6798 65.6706 78.6665 65.0113C79.6532 64.352 80.8133 64.0001 82 64.0001C83.5913 64.0001 85.1174 64.6322 86.2426 65.7574C87.3678 66.8827 88 68.4088 88 70.0001Z" fill="#252525"/>
</svg>
