<svg width="128" height="128" viewBox="0 0 128 128" fill="none" xmlns="http://www.w3.org/2000/svg">
<path d="M26.6667 21.3335V32.0002L53.3334 58.6668M53.3334 58.6668H21.3334L13.3334 50.6668M53.3334 58.6668L21.3334 90.6668V101.333M101.333 21.3335V32.0002L74.6667 58.6668M74.6667 58.6668H106.667L114.667 50.6668M74.6667 58.6668L106.667 90.6668V101.333" stroke="#252525" stroke-width="8" stroke-linecap="round" stroke-linejoin="round"/>
<path d="M42.6667 80.0003C42.6667 85.6583 44.9144 91.0845 48.9151 95.0853C52.9159 99.086 58.3421 101.334 64.0001 101.334C69.658 101.334 75.0843 99.086 79.085 95.0853C83.0858 91.0845 85.3334 85.6583 85.3334 80.0003C85.3334 74.3424 83.0858 68.9162 79.085 64.9154C75.0843 60.9146 69.658 58.667 64.0001 58.667C58.3421 58.667 52.9159 60.9146 48.9151 64.9154C44.9144 68.9162 42.6667 74.3424 42.6667 80.0003Z" stroke="#252525" stroke-width="8" stroke-linecap="round" stroke-linejoin="round"/>
<path d="M53.3334 48.0002C53.3334 50.8291 54.4572 53.5422 56.4576 55.5426C58.458 57.543 61.1711 58.6668 64 58.6668C66.829 58.6668 69.5421 57.543 71.5425 55.5426C73.5429 53.5422 74.6667 50.8291 74.6667 48.0002C74.6667 45.1712 73.5429 42.4581 71.5425 40.4577C69.5421 38.4573 66.829 37.3335 64 37.3335C61.1711 37.3335 58.458 38.4573 56.4576 40.4577C54.4572 42.4581 53.3334 45.1712 53.3334 48.0002Z" stroke="#252525" stroke-width="8" stroke-linecap="round" stroke-linejoin="round"/>
</svg>
