<svg width="31" height="28" viewBox="0 0 31 28" fill="none" xmlns="http://www.w3.org/2000/svg">
<path d="M26.9637 4.39324C26.2966 3.7259 25.5047 3.19652 24.633 2.83535C23.7613 2.47417 22.827 2.28827 21.8835 2.28827C20.94 2.28827 20.0057 2.47417 19.134 2.83535C18.2623 3.19652 17.4704 3.7259 16.8033 4.39324L15.419 5.77755L14.0347 4.39324C12.6874 3.0459 10.86 2.28897 8.95453 2.28897C7.04909 2.28897 5.2217 3.0459 3.87436 4.39324C2.52701 5.74058 1.77008 7.56797 1.77008 9.4734C1.77008 11.3788 2.52701 13.2062 3.87436 14.5536L5.25867 15.9379L15.419 26.0982L25.5794 15.9379L26.9637 14.5536C27.631 13.8865 28.1604 13.0946 28.5216 12.2229C28.8827 11.3512 29.0686 10.4169 29.0686 9.4734C29.0686 8.52987 28.8827 7.59558 28.5216 6.72391C28.1604 5.85223 27.631 5.06026 26.9637 4.39324Z" fill="#D95796" stroke="#D95796" stroke-width="2.61191" stroke-linecap="round" stroke-linejoin="round"/>
</svg>
